<mxfile host="app.diagrams.net" modified="2023-11-21T19:47:24.893Z" agent="Mozilla/5.0 (X11; Linux x86_64; rv:121.0) Gecko/20100101 Firefox/121.0" etag="557K26Gh7DbvyBHexjld" version="22.1.3" type="device">
  <diagram name="Page-1" id="39fPUp5zSJT6BrBcXp-8">
    <mxGraphModel dx="1434" dy="787" grid="1" gridSize="10" guides="1" tooltips="1" connect="1" arrows="1" fold="1" page="1" pageScale="1" pageWidth="850" pageHeight="1100" math="0" shadow="0">
      <root>
        <mxCell id="0" />
        <mxCell id="1" parent="0" />
        <mxCell id="G3nq_EYNlLwuAzGxM-8_-1" value="Agregar Usuario" style="ellipse;whiteSpace=wrap;html=1;aspect=fixed;" vertex="1" parent="1">
          <mxGeometry x="130" y="510" width="80" height="80" as="geometry" />
        </mxCell>
        <mxCell id="G3nq_EYNlLwuAzGxM-8_-2" value="Login" style="ellipse;whiteSpace=wrap;html=1;aspect=fixed;" vertex="1" parent="1">
          <mxGeometry x="110" y="280" width="80" height="80" as="geometry" />
        </mxCell>
        <mxCell id="G3nq_EYNlLwuAzGxM-8_-3" value="Trabajos" style="ellipse;whiteSpace=wrap;html=1;aspect=fixed;" vertex="1" parent="1">
          <mxGeometry x="340" y="300" width="80" height="80" as="geometry" />
        </mxCell>
        <mxCell id="G3nq_EYNlLwuAzGxM-8_-4" value="Usuarios" style="ellipse;whiteSpace=wrap;html=1;aspect=fixed;" vertex="1" parent="1">
          <mxGeometry x="120" y="100" width="80" height="80" as="geometry" />
        </mxCell>
        <mxCell id="G3nq_EYNlLwuAzGxM-8_-5" value="Información&lt;br&gt;Usuario" style="ellipse;whiteSpace=wrap;html=1;aspect=fixed;" vertex="1" parent="1">
          <mxGeometry x="340" y="70" width="80" height="80" as="geometry" />
        </mxCell>
        <mxCell id="G3nq_EYNlLwuAzGxM-8_-6" value="Información&lt;br&gt;Trabajo" style="ellipse;whiteSpace=wrap;html=1;aspect=fixed;" vertex="1" parent="1">
          <mxGeometry x="520" y="210" width="80" height="80" as="geometry" />
        </mxCell>
        <mxCell id="G3nq_EYNlLwuAzGxM-8_-9" value="" style="curved=1;endArrow=classic;html=1;rounded=0;entryX=0.65;entryY=0.963;entryDx=0;entryDy=0;entryPerimeter=0;" edge="1" parent="1" source="G3nq_EYNlLwuAzGxM-8_-1" target="G3nq_EYNlLwuAzGxM-8_-2">
          <mxGeometry width="50" height="50" relative="1" as="geometry">
            <mxPoint x="430" y="440" as="sourcePoint" />
            <mxPoint x="480" y="390" as="targetPoint" />
            <Array as="points">
              <mxPoint x="250" y="490" />
            </Array>
          </mxGeometry>
        </mxCell>
        <mxCell id="G3nq_EYNlLwuAzGxM-8_-12" value="Volver" style="edgeLabel;html=1;align=center;verticalAlign=middle;resizable=0;points=[];" vertex="1" connectable="0" parent="G3nq_EYNlLwuAzGxM-8_-9">
          <mxGeometry x="-0.0328" y="12" relative="1" as="geometry">
            <mxPoint as="offset" />
          </mxGeometry>
        </mxCell>
        <mxCell id="G3nq_EYNlLwuAzGxM-8_-10" value="" style="curved=1;endArrow=classic;html=1;rounded=0;exitX=0.25;exitY=0.938;exitDx=0;exitDy=0;exitPerimeter=0;" edge="1" parent="1" source="G3nq_EYNlLwuAzGxM-8_-2" target="G3nq_EYNlLwuAzGxM-8_-1">
          <mxGeometry width="50" height="50" relative="1" as="geometry">
            <mxPoint x="220" y="560" as="sourcePoint" />
            <mxPoint x="192" y="387" as="targetPoint" />
            <Array as="points">
              <mxPoint x="80" y="450" />
            </Array>
          </mxGeometry>
        </mxCell>
        <mxCell id="G3nq_EYNlLwuAzGxM-8_-11" value="Agregar Usuario" style="edgeLabel;html=1;align=center;verticalAlign=middle;resizable=0;points=[];" vertex="1" connectable="0" parent="G3nq_EYNlLwuAzGxM-8_-10">
          <mxGeometry x="-0.2244" y="22" relative="1" as="geometry">
            <mxPoint as="offset" />
          </mxGeometry>
        </mxCell>
        <mxCell id="G3nq_EYNlLwuAzGxM-8_-14" value="" style="curved=1;endArrow=classic;html=1;rounded=0;exitX=1;exitY=0.5;exitDx=0;exitDy=0;" edge="1" parent="1" source="G3nq_EYNlLwuAzGxM-8_-2" target="G3nq_EYNlLwuAzGxM-8_-3">
          <mxGeometry width="50" height="50" relative="1" as="geometry">
            <mxPoint x="215" y="373" as="sourcePoint" />
            <mxPoint x="364" y="387" as="targetPoint" />
            <Array as="points">
              <mxPoint x="300" y="290" />
            </Array>
          </mxGeometry>
        </mxCell>
        <mxCell id="G3nq_EYNlLwuAzGxM-8_-26" value="Trabajos" style="edgeLabel;html=1;align=center;verticalAlign=middle;resizable=0;points=[];" vertex="1" connectable="0" parent="G3nq_EYNlLwuAzGxM-8_-14">
          <mxGeometry x="0.0086" y="-12" relative="1" as="geometry">
            <mxPoint x="5" y="-9" as="offset" />
          </mxGeometry>
        </mxCell>
        <mxCell id="G3nq_EYNlLwuAzGxM-8_-16" value="" style="curved=1;endArrow=classic;html=1;rounded=0;entryX=1;entryY=1;entryDx=0;entryDy=0;" edge="1" parent="1" source="G3nq_EYNlLwuAzGxM-8_-3" target="G3nq_EYNlLwuAzGxM-8_-2">
          <mxGeometry width="50" height="50" relative="1" as="geometry">
            <mxPoint x="430" y="440" as="sourcePoint" />
            <mxPoint x="480" y="390" as="targetPoint" />
            <Array as="points">
              <mxPoint x="320" y="400" />
              <mxPoint x="250" y="400" />
            </Array>
          </mxGeometry>
        </mxCell>
        <mxCell id="G3nq_EYNlLwuAzGxM-8_-17" value="Volver" style="edgeLabel;html=1;align=center;verticalAlign=middle;resizable=0;points=[];" vertex="1" connectable="0" parent="G3nq_EYNlLwuAzGxM-8_-16">
          <mxGeometry x="0.1378" y="-2" relative="1" as="geometry">
            <mxPoint x="20" as="offset" />
          </mxGeometry>
        </mxCell>
        <mxCell id="G3nq_EYNlLwuAzGxM-8_-18" value="" style="curved=1;endArrow=classic;html=1;rounded=0;exitX=0.6;exitY=1.025;exitDx=0;exitDy=0;exitPerimeter=0;entryX=1;entryY=1;entryDx=0;entryDy=0;" edge="1" parent="1" source="G3nq_EYNlLwuAzGxM-8_-6" target="G3nq_EYNlLwuAzGxM-8_-3">
          <mxGeometry width="50" height="50" relative="1" as="geometry">
            <mxPoint x="362" y="378" as="sourcePoint" />
            <mxPoint x="526" y="480" as="targetPoint" />
            <Array as="points">
              <mxPoint x="550" y="350" />
              <mxPoint x="470" y="380" />
            </Array>
          </mxGeometry>
        </mxCell>
        <mxCell id="G3nq_EYNlLwuAzGxM-8_-19" value="Volver" style="edgeLabel;html=1;align=center;verticalAlign=middle;resizable=0;points=[];" vertex="1" connectable="0" parent="G3nq_EYNlLwuAzGxM-8_-18">
          <mxGeometry x="0.1378" y="-2" relative="1" as="geometry">
            <mxPoint as="offset" />
          </mxGeometry>
        </mxCell>
        <mxCell id="G3nq_EYNlLwuAzGxM-8_-20" value="" style="curved=1;endArrow=classic;html=1;rounded=0;exitX=0;exitY=0.25;exitDx=0;exitDy=0;exitPerimeter=0;entryX=0.738;entryY=1.013;entryDx=0;entryDy=0;entryPerimeter=0;" edge="1" parent="1" source="G3nq_EYNlLwuAzGxM-8_-6" target="G3nq_EYNlLwuAzGxM-8_-5">
          <mxGeometry width="50" height="50" relative="1" as="geometry">
            <mxPoint x="558" y="282" as="sourcePoint" />
            <mxPoint x="418" y="378" as="targetPoint" />
            <Array as="points">
              <mxPoint x="450" y="240" />
              <mxPoint x="390" y="200" />
            </Array>
          </mxGeometry>
        </mxCell>
        <mxCell id="G3nq_EYNlLwuAzGxM-8_-21" value="Volver" style="edgeLabel;html=1;align=center;verticalAlign=middle;resizable=0;points=[];" vertex="1" connectable="0" parent="G3nq_EYNlLwuAzGxM-8_-20">
          <mxGeometry x="0.1378" y="-2" relative="1" as="geometry">
            <mxPoint as="offset" />
          </mxGeometry>
        </mxCell>
        <mxCell id="G3nq_EYNlLwuAzGxM-8_-22" value="" style="curved=1;endArrow=classic;html=1;rounded=0;exitX=0;exitY=1;exitDx=0;exitDy=0;entryX=1.038;entryY=0.7;entryDx=0;entryDy=0;entryPerimeter=0;" edge="1" parent="1" source="G3nq_EYNlLwuAzGxM-8_-5" target="G3nq_EYNlLwuAzGxM-8_-4">
          <mxGeometry width="50" height="50" relative="1" as="geometry">
            <mxPoint x="568" y="292" as="sourcePoint" />
            <mxPoint x="428" y="388" as="targetPoint" />
            <Array as="points">
              <mxPoint x="330" y="190" />
              <mxPoint x="250" y="200" />
            </Array>
          </mxGeometry>
        </mxCell>
        <mxCell id="G3nq_EYNlLwuAzGxM-8_-23" value="Volver" style="edgeLabel;html=1;align=center;verticalAlign=middle;resizable=0;points=[];" vertex="1" connectable="0" parent="G3nq_EYNlLwuAzGxM-8_-22">
          <mxGeometry x="0.1378" y="-2" relative="1" as="geometry">
            <mxPoint as="offset" />
          </mxGeometry>
        </mxCell>
        <mxCell id="G3nq_EYNlLwuAzGxM-8_-24" value="" style="curved=1;endArrow=classic;html=1;rounded=0;exitX=0.763;exitY=1;exitDx=0;exitDy=0;exitPerimeter=0;entryX=0.75;entryY=0.088;entryDx=0;entryDy=0;entryPerimeter=0;" edge="1" parent="1" source="G3nq_EYNlLwuAzGxM-8_-4" target="G3nq_EYNlLwuAzGxM-8_-2">
          <mxGeometry width="50" height="50" relative="1" as="geometry">
            <mxPoint x="578" y="302" as="sourcePoint" />
            <mxPoint x="438" y="398" as="targetPoint" />
            <Array as="points">
              <mxPoint x="210" y="210" />
              <mxPoint x="190" y="260" />
            </Array>
          </mxGeometry>
        </mxCell>
        <mxCell id="G3nq_EYNlLwuAzGxM-8_-25" value="Volver" style="edgeLabel;html=1;align=center;verticalAlign=middle;resizable=0;points=[];" vertex="1" connectable="0" parent="G3nq_EYNlLwuAzGxM-8_-24">
          <mxGeometry x="0.1378" y="-2" relative="1" as="geometry">
            <mxPoint as="offset" />
          </mxGeometry>
        </mxCell>
        <mxCell id="G3nq_EYNlLwuAzGxM-8_-28" value="" style="curved=1;endArrow=classic;html=1;rounded=0;entryX=0.075;entryY=0.725;entryDx=0;entryDy=0;entryPerimeter=0;exitX=0.963;exitY=0.338;exitDx=0;exitDy=0;exitPerimeter=0;" edge="1" parent="1" source="G3nq_EYNlLwuAzGxM-8_-3" target="G3nq_EYNlLwuAzGxM-8_-6">
          <mxGeometry width="50" height="50" relative="1" as="geometry">
            <mxPoint x="430" y="440" as="sourcePoint" />
            <mxPoint x="480" y="390" as="targetPoint" />
            <Array as="points">
              <mxPoint x="440" y="280" />
              <mxPoint x="470" y="260" />
            </Array>
          </mxGeometry>
        </mxCell>
        <mxCell id="G3nq_EYNlLwuAzGxM-8_-29" value="Ver trabajo" style="edgeLabel;html=1;align=center;verticalAlign=middle;resizable=0;points=[];" vertex="1" connectable="0" parent="G3nq_EYNlLwuAzGxM-8_-28">
          <mxGeometry x="-0.0444" y="2" relative="1" as="geometry">
            <mxPoint as="offset" />
          </mxGeometry>
        </mxCell>
        <mxCell id="G3nq_EYNlLwuAzGxM-8_-30" value="" style="curved=1;endArrow=classic;html=1;rounded=0;entryX=0.4;entryY=0.013;entryDx=0;entryDy=0;entryPerimeter=0;exitX=1;exitY=0.5;exitDx=0;exitDy=0;" edge="1" parent="1" source="G3nq_EYNlLwuAzGxM-8_-5" target="G3nq_EYNlLwuAzGxM-8_-6">
          <mxGeometry width="50" height="50" relative="1" as="geometry">
            <mxPoint x="427" y="337" as="sourcePoint" />
            <mxPoint x="536" y="278" as="targetPoint" />
            <Array as="points">
              <mxPoint x="480" y="120" />
              <mxPoint x="530" y="140" />
            </Array>
          </mxGeometry>
        </mxCell>
        <mxCell id="G3nq_EYNlLwuAzGxM-8_-31" value="Ver trabajo" style="edgeLabel;html=1;align=center;verticalAlign=middle;resizable=0;points=[];" vertex="1" connectable="0" parent="G3nq_EYNlLwuAzGxM-8_-30">
          <mxGeometry x="-0.0444" y="2" relative="1" as="geometry">
            <mxPoint as="offset" />
          </mxGeometry>
        </mxCell>
        <mxCell id="G3nq_EYNlLwuAzGxM-8_-32" value="" style="curved=1;endArrow=classic;html=1;rounded=0;exitX=0.725;exitY=0.013;exitDx=0;exitDy=0;exitPerimeter=0;" edge="1" parent="1" source="G3nq_EYNlLwuAzGxM-8_-4" target="G3nq_EYNlLwuAzGxM-8_-5">
          <mxGeometry width="50" height="50" relative="1" as="geometry">
            <mxPoint x="240" y="100" as="sourcePoint" />
            <mxPoint x="290" y="50" as="targetPoint" />
            <Array as="points">
              <mxPoint x="220" y="60" />
              <mxPoint x="290" y="50" />
            </Array>
          </mxGeometry>
        </mxCell>
        <mxCell id="G3nq_EYNlLwuAzGxM-8_-33" value="Administrar usuario" style="edgeLabel;html=1;align=center;verticalAlign=middle;resizable=0;points=[];" vertex="1" connectable="0" parent="G3nq_EYNlLwuAzGxM-8_-32">
          <mxGeometry x="-0.0922" y="-2" relative="1" as="geometry">
            <mxPoint as="offset" />
          </mxGeometry>
        </mxCell>
        <mxCell id="G3nq_EYNlLwuAzGxM-8_-34" value="" style="curved=1;endArrow=classic;html=1;rounded=0;entryX=0.05;entryY=0.813;entryDx=0;entryDy=0;entryPerimeter=0;exitX=0.038;exitY=0.213;exitDx=0;exitDy=0;exitPerimeter=0;" edge="1" parent="1" source="G3nq_EYNlLwuAzGxM-8_-2" target="G3nq_EYNlLwuAzGxM-8_-4">
          <mxGeometry width="50" height="50" relative="1" as="geometry">
            <mxPoint x="430" y="440" as="sourcePoint" />
            <mxPoint x="480" y="390" as="targetPoint" />
            <Array as="points">
              <mxPoint x="80" y="280" />
              <mxPoint x="80" y="210" />
            </Array>
          </mxGeometry>
        </mxCell>
        <mxCell id="G3nq_EYNlLwuAzGxM-8_-35" value="Usuarios" style="edgeLabel;html=1;align=center;verticalAlign=middle;resizable=0;points=[];" vertex="1" connectable="0" parent="G3nq_EYNlLwuAzGxM-8_-34">
          <mxGeometry x="0.2015" y="-10" relative="1" as="geometry">
            <mxPoint as="offset" />
          </mxGeometry>
        </mxCell>
        <mxCell id="G3nq_EYNlLwuAzGxM-8_-36" value="" style="rounded=0;whiteSpace=wrap;html=1;fillColor=none;strokeColor=none;" vertex="1" parent="1">
          <mxGeometry x="40" y="20" width="590" height="600" as="geometry" />
        </mxCell>
      </root>
    </mxGraphModel>
  </diagram>
</mxfile>
